<?xml version="1.0" encoding="utf-8"?>
<!-- Generator: Adobe Illustrator 19.0.0, SVG Export Plug-In . SVG Version: 6.00 Build 0)  -->
<svg version="1.1" xmlns="http://www.w3.org/2000/svg" xmlns:xlink="http://www.w3.org/1999/xlink" x="0px" y="0px"
	 viewBox="0 0 31 31" style="enable-background:new 0 0 31 31;" xml:space="preserve">
<style type="text/css">
	.st0{fill:#46537A;}
	.st1{fill:#F1F2F1;}
	.st2{display:none;}
	.st3{display:inline;}
	.st4{fill:#999A9A;}
</style>
<g id="Слой_1">
	<g id="XMLID_1_">
		<circle id="XMLID_3_" class="st0" cx="15.6" cy="15.5" r="15"/>
		<path id="XMLID_6_" class="st1" d="M18.6,15.5h-2v7h-2.9v-7h-1.4v-2.5h1.4v-1.6c0-1.1,0.5-2.9,2.9-2.9l2.2,0V11h-1.6
			c-0.3,0-0.6,0.1-0.6,0.7v1.5h2.2L18.6,15.5z M18.6,15.5"/>
	</g>
</g>
<g id="Слой_2" class="st2">
	<g id="XMLID_45_" class="st3">
		<circle id="XMLID_49_" class="st4" cx="15.6" cy="15.5" r="15"/>
		<path id="XMLID_46_" class="st1" d="M19.4,15.5h-2.5v8.9h-3.7v-8.9h-1.8v-3.1h1.8v-2c0-1.4,0.7-3.7,3.7-3.7l2.7,0v3h-2
			c-0.3,0-0.8,0.2-0.8,0.9v1.8h2.8L19.4,15.5z M19.4,15.5"/>
	</g>
</g>
</svg>
