<?xml version="1.0" encoding="utf-8"?>
<!-- Generator: Adobe Illustrator 19.0.0, SVG Export Plug-In . SVG Version: 6.00 Build 0)  -->
<svg version="1.1" xmlns="http://www.w3.org/2000/svg" xmlns:xlink="http://www.w3.org/1999/xlink" x="0px" y="0px"
	 viewBox="0 0 31 31" style="enable-background:new 0 0 31 31;" xml:space="preserve">
<style type="text/css">
	.st0{fill:#4D639C;}
	.st1{fill:#F1F2F1;}
	.st2{fill:#999A9A;}
</style>
<g id="Слой_1">
	<g id="XMLID_47_">
		<circle id="XMLID_54_" class="st0" cx="15.5" cy="15.5" r="15"/>
		<g id="XMLID_48_">
			<path id="XMLID_49_" class="st1" d="M21.6,7.9H9.4c-0.8,0-1.5,0.7-1.5,1.5v12.2c0,0.8,0.7,1.5,1.5,1.5h12.2
				c0.8,0,1.5-0.7,1.5-1.5V9.4C23.1,8.6,22.4,7.9,21.6,7.9L21.6,7.9z M15.5,12.5c1.7,0,3,1.4,3,3c0,1.7-1.4,3-3,3c-1.7,0-3-1.4-3-3
				C12.5,13.8,13.8,12.5,15.5,12.5L15.5,12.5z M9.8,21.6c-0.2,0-0.4-0.2-0.4-0.4v-6.5H11c-0.1,0.2-0.1,0.5-0.1,0.8
				c0,2.5,2.1,4.6,4.6,4.6c2.5,0,4.6-2.1,4.6-4.6c0-0.2,0-0.5-0.1-0.8h1.6v6.5c0,0.2-0.2,0.4-0.4,0.4H9.8z M21.6,11.3
				c0,0.2-0.2,0.4-0.4,0.4h-1.5c-0.2,0-0.4-0.2-0.4-0.4V9.8c0-0.2,0.2-0.4,0.4-0.4h1.5c0.2,0,0.4,0.2,0.4,0.4V11.3z M21.6,11.3"/>
		</g>
	</g>
</g>
<g id="Слой_2">
	<g>
		<circle id="XMLID_45_" class="st2" cx="15.5" cy="15.5" r="15"/>
		<g>
			<path id="XMLID_3_" class="st1" d="M21.1,8.5H9.9c-0.8,0-1.4,0.6-1.4,1.4v11.2c0,0.8,0.6,1.4,1.4,1.4h11.2c0.8,0,1.4-0.6,1.4-1.4
				V9.9C22.5,9.1,21.9,8.5,21.1,8.5L21.1,8.5z M15.5,12.7c1.5,0,2.8,1.3,2.8,2.8c0,1.5-1.3,2.8-2.8,2.8c-1.5,0-2.8-1.3-2.8-2.8
				C12.7,14,14,12.7,15.5,12.7L15.5,12.7z M10.2,21.1c-0.2,0-0.3-0.1-0.3-0.3v-6h1.5c-0.1,0.2-0.1,0.5-0.1,0.7
				c0,2.3,1.9,4.2,4.2,4.2c2.3,0,4.2-1.9,4.2-4.2c0-0.2,0-0.5-0.1-0.7h1.5v6c0,0.2-0.1,0.3-0.3,0.3H10.2z M21.1,11.7
				c0,0.2-0.1,0.3-0.3,0.3h-1.4c-0.2,0-0.3-0.1-0.3-0.3v-1.4c0-0.2,0.1-0.3,0.3-0.3h1.4c0.2,0,0.3,0.1,0.3,0.3V11.7z M21.1,11.7"/>
		</g>
	</g>
</g>
</svg>
