<?xml version="1.0" encoding="utf-8"?>
<!-- Generator: Adobe Illustrator 19.0.0, SVG Export Plug-In . SVG Version: 6.00 Build 0)  -->
<svg version="1.1" xmlns="http://www.w3.org/2000/svg" xmlns:xlink="http://www.w3.org/1999/xlink" x="0px" y="0px"
	 viewBox="0 0 31 31" style="enable-background:new 0 0 31 31;" xml:space="preserve">
<style type="text/css">
	.st0{fill:#4A97B7;}
	.st1{fill:#F1F2F1;}
	.st2{fill:#999A9A;}
</style>
<g id="Слой_1">
	<g id="XMLID_1_">
		<circle id="XMLID_3_" class="st0" cx="15.5" cy="15.5" r="15"/>
		<g id="XMLID_45_">
			<path id="XMLID_46_" class="st1" d="M24.8,9.8c-0.7,0.3-1.4,0.5-2.2,0.6c0.8-0.5,1.4-1.2,1.7-2.1c-0.7,0.4-1.5,0.8-2.4,0.9
				C21.1,8.4,20.2,8,19.1,8c-2.1,0-3.8,1.7-3.8,3.8c0,0.3,0,0.6,0.1,0.9c-3.2-0.2-6-1.7-7.8-4C7.2,9.2,7,9.9,7,10.6
				c0,1.3,0.7,2.5,1.7,3.2c-0.6,0-1.2-0.2-1.7-0.5c0,0,0,0,0,0c0,1.8,1.3,3.4,3,3.7c-0.3,0.1-0.7,0.1-1,0.1c-0.2,0-0.5,0-0.7-0.1
				c0.5,1.5,1.9,2.6,3.5,2.6c-1.3,1-2.9,1.6-4.7,1.6c-0.3,0-0.6,0-0.9-0.1c1.7,1.1,3.7,1.7,5.8,1.7c7,0,10.8-5.8,10.8-10.8
				c0-0.2,0-0.3,0-0.5C23.6,11.2,24.2,10.5,24.8,9.8L24.8,9.8z M24.8,9.8"/>
		</g>
	</g>
</g>
<g id="Слой_2">
	<g id="XMLID_2_">
		<circle id="XMLID_51_" class="st2" cx="15.5" cy="15.5" r="15"/>
		<g id="XMLID_47_">
			<path id="XMLID_48_" class="st1" d="M24.1,10.2c-0.6,0.3-1.3,0.5-2,0.6c0.7-0.4,1.3-1.1,1.6-2c-0.7,0.4-1.4,0.7-2.2,0.9
				c-0.6-0.7-1.6-1.1-2.6-1.1c-2,0-3.5,1.6-3.5,3.5c0,0.3,0,0.5,0.1,0.8c-2.9-0.1-5.5-1.6-7.3-3.7c-0.3,0.5-0.5,1.1-0.5,1.8
				c0,1.2,0.6,2.3,1.6,2.9c-0.6,0-1.1-0.2-1.6-0.4c0,0,0,0,0,0c0,1.7,1.2,3.1,2.8,3.5c-0.3,0.1-0.6,0.1-0.9,0.1
				c-0.2,0-0.4,0-0.7-0.1c0.4,1.4,1.8,2.4,3.3,2.5C10.9,20.4,9.4,21,7.7,21c-0.3,0-0.6,0-0.8,0c1.6,1,3.4,1.6,5.4,1.6
				c6.5,0,10.1-5.4,10.1-10.1c0-0.2,0-0.3,0-0.5C23,11.5,23.6,10.9,24.1,10.2L24.1,10.2z M24.1,10.2"/>
		</g>
	</g>
</g>
</svg>
